<?xml version="1.0" standalone="no"?><!DOCTYPE svg PUBLIC "-//W3C//DTD SVG 1.1//EN" "http://www.w3.org/Graphics/SVG/1.1/DTD/svg11.dtd"><svg t="1718118850492" class="icon" viewBox="0 0 1328 1024" version="1.1" xmlns="http://www.w3.org/2000/svg" p-id="4187" xmlns:xlink="http://www.w3.org/1999/xlink" width="259.375" height="200"><path d="M1148.925603 512c0-93.752508 73.888963-169.78194 164.987291-169.78194V124.404013A106.167224 106.167224 0 0 0 1209.629282 17.123746H123.812559A106.167224 106.167224 0 0 0 19.528947 124.404013V342.474916c91.183946 0 165.07291 76.029431 165.07291 169.78194s-73.888963 169.525084-165.07291 169.525084v217.814047a106.167224 106.167224 0 0 0 104.283612 107.280267h1085.816723a106.167224 106.167224 0 0 0 104.283612-107.280267V681.78194c-91.098328 0-164.987291-76.029431-164.987291-169.78194z" fill="#FFF100" p-id="4188"></path><path d="M90.164399 22.089632A107.365886 107.365886 0 0 0 17.131623 124.404013V342.474916a160.192642 160.192642 0 0 1 73.032776 17.123746zM90.164399 664.058863A160.278261 160.278261 0 0 1 17.131623 681.78194v217.814047a107.451505 107.451505 0 0 0 73.032776 102.742475z" fill="#FFFFFF" p-id="4189"></path><path d="M1240.880118 22.089632a107.365886 107.365886 0 0 1 73.032776 102.742475V342.474916a160.192642 160.192642 0 0 0-73.032776 17.123746zM1240.880118 664.058863a160.278261 160.278261 0 0 0 73.032776 17.723077v217.814047a107.451505 107.451505 0 0 1-73.032776 102.742475z" fill="#F8B62D" p-id="4190"></path><path d="M1040.361054 1024h-80.224749a17.123746 17.123746 0 0 1 0-34.247492h80.224749a17.123746 17.123746 0 1 1 0 34.247492zM882.394499 1024H121.415235A123.119732 123.119732 0 0 1 0.007877 899.510368V664.658194h17.123746c81.50903 0 147.863545-68.494983 147.863545-152.658194S98.640653 359.598662 17.131623 359.598662H0.007877V124.404013A123.034114 123.034114 0 0 1 121.415235 0h99.6602a17.123746 17.123746 0 0 1 0 34.247492H121.415235A88.786622 88.786622 0 0 0 34.255369 124.404013v201.46087a187.419398 187.419398 0 0 1 0 372.184615v201.46087a88.872241 88.872241 0 0 0 87.159866 90.24214h760.979264a17.123746 17.123746 0 0 1 0 34.247492zM1207.231957 1024h-86.303679a17.123746 17.123746 0 0 1 0-34.247492H1207.231957a88.872241 88.872241 0 0 0 87.159866-90.24214V698.049498a187.419398 187.419398 0 0 1 0-372.184615V124.404013A88.786622 88.786622 0 0 0 1207.231957 34.247492H327.328278a17.123746 17.123746 0 0 1 0-34.247492H1207.231957a123.034114 123.034114 0 0 1 121.407358 124.404013V359.598662h-17.123746c-81.594649 0-147.949164 68.494983-147.949164 152.658194s66.354515 152.658194 147.949164 152.658194h17.123746v234.852174A123.119732 123.119732 0 0 1 1207.231957 1024z" fill="#231815" p-id="4191"></path><path d="M275.35771 269.698997m38.785284 0l700.275585 0q38.785284 0 38.785285 38.785284l0 65.155853q0 38.785284-38.785285 38.785284l-700.275585 0q-38.785284 0-38.785284-38.785284l0-65.155853q0-38.785284 38.785284-38.785284Z" fill="#FFFFFF" p-id="4192"></path><path d="M1014.504198 429.549164h-700.361204a55.994649 55.994649 0 0 1-55.90903-55.90903V308.227425a55.994649 55.994649 0 0 1 55.90903-55.823412h700.361204A55.90903 55.90903 0 0 1 1070.241991 308.227425v65.241471a55.994649 55.994649 0 0 1-55.737793 56.080268zM314.142994 286.822742a21.661538 21.661538 0 0 0-21.661538 21.404683v65.241471a21.747157 21.747157 0 0 0 21.661538 21.661539h700.361204a21.661538 21.661538 0 0 0 21.490301-21.490301V308.227425a21.57592 21.57592 0 0 0-21.57592-21.57592z" fill="#231815" p-id="4193"></path><path d="M275.35771 625.787291m38.785284 0l700.275585 0q38.785284 0 38.785285 38.785284l0 65.155853q0 38.785284-38.785285 38.785284l-700.275585 0q-38.785284 0-38.785284-38.785284l0-65.155853q0-38.785284 38.785284-38.785284Z" fill="#00A0E9" p-id="4194"></path><path d="M1014.504198 785.637458h-700.361204a55.994649 55.994649 0 0 1-55.90903-55.823411v-65.241472a55.994649 55.994649 0 0 1 55.90903-55.90903h700.361204a55.994649 55.994649 0 0 1 55.737793 55.90903v65.241472a55.90903 55.90903 0 0 1-55.737793 55.823411z m-700.361204-142.726421a21.747157 21.747157 0 0 0-21.661538 21.661538v65.241472a21.661538 21.661538 0 0 0 21.661538 21.57592h700.361204a21.57592 21.57592 0 0 0 21.490301-21.57592v-65.241472a21.661538 21.661538 0 0 0-21.57592-21.661538z" fill="#231815" p-id="4195"></path></svg>